<svg xmlns="http://www.w3.org/2000/svg" xmlns:xlink="http://www.w3.org/1999/xlink" contentStyleType="text/css" data-diagram-type="CLASS" height="3265.625px" preserveAspectRatio="none" style="width:898px;height:3265px;background:#1E1E1E;" version="1.1" viewBox="0 0 898 3265" width="898.4375px" zoomAndPan="magnify"><title>UnrealExample - Unreal Engine 5.5</title><defs/><g><rect fill="#1E1E1E" height="3265.625" style="stroke:none;stroke-width:1.5625;" width="898.4375" x="0" y="0"/><text fill="#FFFFFF" font-family="sans-serif" font-size="21.875" font-weight="bold" lengthAdjust="spacing" textLength="361.0657" x="257.7484" y="38.3331">UnrealExample - Unreal Engine 5.5</text><!--cluster Helpers--><g class="cluster" data-entity="Helpers" data-source-line="45" data-uid="ent0002" id="cluster_Helpers"><path d="M54.6875,1047.8271 L136.4975,1047.8271 A5.8594,5.8594 0 0 1 140.4037,1051.7334 L151.3412,1084.7168 L883.5938,1084.7168 A3.9063,3.9063 0 0 1 887.5,1088.623 L887.5,3251.7334 A3.9063,3.9063 0 0 1 883.5938,3255.6396 L54.6875,3255.6396 A3.9063,3.9063 0 0 1 50.7813,3251.7334 L50.7813,1051.7334 A3.9063,3.9063 0 0 1 54.6875,1047.8271" fill="#484848" style="stroke:#AAAAAA;stroke-width:2.3438;"/><line style="stroke:#AAAAAA;stroke-width:2.3438;" x1="50.7813" x2="151.3412" y1="1084.7168" y2="1084.7168"/><text fill="#FFFFFF" font-family="sans-serif" font-size="21.875" font-weight="bold" lengthAdjust="spacing" textLength="80.2475" x="57.0313" y="1073.6603">Helpers</text><text fill="#FFFFFF" font-family="sans-serif" font-size="21.875" font-style="italic" lengthAdjust="spacing" textLength="99.7086" x="425.5363" y="1110.5499">&#171;Helpers&#187;</text></g><!--cluster Characters--><g class="cluster" data-entity="Characters" data-source-line="98" data-uid="ent0024" id="cluster_Characters"><path d="M13.2813,69.7021 L129.1428,69.7021 A5.8594,5.8594 0 0 1 133.049,73.6084 L143.9865,106.5918 L848.4375,106.5918 A3.9063,3.9063 0 0 1 852.3438,110.498 L852.3438,1006.4209 A3.9063,3.9063 0 0 1 848.4375,1010.3271 L13.2813,1010.3271 A3.9063,3.9063 0 0 1 9.375,1006.4209 L9.375,73.6084 A3.9063,3.9063 0 0 1 13.2813,69.7021" fill="#FF8C00" style="stroke:#FF6600;stroke-width:2.3438;"/><line style="stroke:#FF6600;stroke-width:2.3438;" x1="9.375" x2="143.9865" y1="106.5918" y2="106.5918"/><text fill="#FFFFFF" font-family="sans-serif" font-size="21.875" font-weight="bold" lengthAdjust="spacing" textLength="114.299" x="15.625" y="95.5353">Characters</text><text fill="#FFFFFF" font-family="sans-serif" font-size="21.875" font-style="italic" lengthAdjust="spacing" textLength="131.3141" x="371.4523" y="132.4249">&#171;Characters&#187;</text></g><!--class UAnimationClip--><g class="entity" data-entity="UAnimationClip" data-source-line="46" data-uid="ent0003" id="entity_UAnimationClip"><rect fill="#3C3C3C" height="185.0586" rx="3.9063" ry="3.9063" style="stroke:#00BFFF;stroke-width:0.7813;" width="253.3829" x="475" y="3046.2646"/><ellipse cx="522.1206" cy="3071.2646" fill="#ADD1B2" rx="17.1875" ry="17.1875" style="stroke:#181818;stroke-width:1.5625;"/><path d="M526.4419,3064.8193 Q526.686,3064.4775 526.979,3064.3066 Q527.272,3064.1357 527.6138,3064.1357 Q528.1997,3064.1357 528.5659,3064.5508 Q528.9321,3064.9414 528.9321,3065.8936 L528.9321,3068.1641 Q528.9321,3069.1162 528.5659,3069.5313 Q528.1997,3069.9463 527.6138,3069.9463 Q527.0766,3069.9463 526.7593,3069.6289 Q526.4419,3069.3359 526.271,3068.5303 Q526.1977,3067.9688 525.9048,3067.6758 Q525.3921,3067.0898 524.4399,3066.748 Q523.4878,3066.4063 522.5112,3066.4063 Q521.3149,3066.4063 520.3139,3066.9189 Q519.3374,3067.4316 518.5561,3068.6035 Q517.7993,3069.7754 517.7993,3071.3867 L517.7993,3073.0957 Q517.7993,3075.0244 519.1909,3076.3184 Q520.5825,3077.5879 523.0727,3077.5879 Q524.5376,3077.5879 525.563,3077.1973 Q526.1733,3076.9531 526.8325,3076.2695 Q527.2475,3075.8545 527.4673,3075.7324 Q527.7114,3075.6104 528.0288,3075.6104 Q528.5415,3075.6104 528.9321,3076.0254 Q529.3472,3076.416 529.3472,3076.9531 Q529.3472,3077.4902 528.81,3078.125 Q528.0288,3079.0283 526.7837,3079.541 Q525.0991,3080.249 523.0727,3080.249 Q520.7046,3080.249 518.8247,3079.2725 Q517.2866,3078.4912 516.2124,3076.8311 Q515.1382,3075.1465 515.1382,3073.1445 L515.1382,3071.3379 Q515.1382,3069.2627 516.0903,3067.4805 Q517.0669,3065.6738 518.7759,3064.7217 Q520.4848,3063.7451 522.4136,3063.7451 Q523.561,3063.7451 524.562,3064.0137 Q525.5874,3064.2578 526.4419,3064.8193 Z " fill="#000000"/><text fill="#FFFFFF" font-family="sans-serif" font-size="21.875" lengthAdjust="spacing" textLength="150.7538" x="549.2585" y="3080.2155">UAnimationClip</text><line style="stroke:#00BFFF;stroke-width:0.7813;" x1="476.5625" x2="726.8204" y1="3096.2646" y2="3096.2646"/><text fill="#FFFFFF" font-family="sans-serif" font-size="21.875" lengthAdjust="spacing" textLength="134.935" x="484.375" y="3125.2228">FString Name</text><text fill="#FFFFFF" font-family="sans-serif" font-size="21.875" lengthAdjust="spacing" textLength="130.1071" x="484.375" y="3152.7374">float Duration</text><line style="stroke:#00BFFF;stroke-width:0.7813;" x1="476.5625" x2="726.8204" y1="3163.7939" y2="3163.7939"/><text fill="#FFFFFF" font-family="sans-serif" font-size="21.875" lengthAdjust="spacing" textLength="234.6329" x="484.375" y="3192.7521">public: UAnimationClip()</text><text fill="#FFFFFF" font-family="sans-serif" font-size="21.875" lengthAdjust="spacing" textLength="103.3295" x="484.375" y="3220.2667">void Play()</text></g><!--class UObject--><g class="entity" data-entity="UObject" data-source-line="47" data-uid="ent0004" id="entity_UObject"><rect fill="#3C3C3C" height="75" rx="3.9063" ry="3.9063" style="stroke:#00BFFF;stroke-width:0.7813;" width="129.0192" x="75.7813" y="2130.6396"/><ellipse cx="99.2188" cy="2155.6396" fill="#ADD1B2" rx="17.1875" ry="17.1875" style="stroke:#181818;stroke-width:1.5625;"/><path d="M103.54,2149.1943 Q103.7842,2148.8525 104.0771,2148.6816 Q104.3701,2148.5107 104.7119,2148.5107 Q105.2979,2148.5107 105.6641,2148.9258 Q106.0303,2149.3164 106.0303,2150.2686 L106.0303,2152.5391 Q106.0303,2153.4912 105.6641,2153.9063 Q105.2979,2154.3213 104.7119,2154.3213 Q104.1748,2154.3213 103.8574,2154.0039 Q103.54,2153.7109 103.3691,2152.9053 Q103.2959,2152.3438 103.0029,2152.0508 Q102.4902,2151.4648 101.5381,2151.123 Q100.5859,2150.7813 99.6094,2150.7813 Q98.4131,2150.7813 97.4121,2151.2939 Q96.4355,2151.8066 95.6543,2152.9785 Q94.8975,2154.1504 94.8975,2155.7617 L94.8975,2157.4707 Q94.8975,2159.3994 96.2891,2160.6934 Q97.6807,2161.9629 100.1709,2161.9629 Q101.6357,2161.9629 102.6611,2161.5723 Q103.2715,2161.3281 103.9307,2160.6445 Q104.3457,2160.2295 104.5654,2160.1074 Q104.8096,2159.9854 105.127,2159.9854 Q105.6396,2159.9854 106.0303,2160.4004 Q106.4453,2160.791 106.4453,2161.3281 Q106.4453,2161.8652 105.9082,2162.5 Q105.127,2163.4033 103.8818,2163.916 Q102.1973,2164.624 100.1709,2164.624 Q97.8027,2164.624 95.9229,2163.6475 Q94.3848,2162.8662 93.3105,2161.2061 Q92.2363,2159.5215 92.2363,2157.5195 L92.2363,2155.7129 Q92.2363,2153.6377 93.1885,2151.8555 Q94.165,2150.0488 95.874,2149.0967 Q97.583,2148.1201 99.5117,2148.1201 Q100.6592,2148.1201 101.6602,2148.3887 Q102.6855,2148.6328 103.54,2149.1943 Z " fill="#000000"/><text fill="#FFFFFF" font-family="sans-serif" font-size="21.875" lengthAdjust="spacing" textLength="79.0192" x="121.0938" y="2164.5905">UObject</text><line style="stroke:#00BFFF;stroke-width:0.7813;" x1="77.3438" x2="203.2379" y1="2180.6396" y2="2180.6396"/><line style="stroke:#00BFFF;stroke-width:0.7813;" x1="77.3438" x2="203.2379" y1="2193.1396" y2="2193.1396"/></g><!--class UMaterial--><g class="entity" data-entity="UMaterial" data-source-line="52" data-uid="ent0006" id="entity_UMaterial"><rect fill="#3C3C3C" height="157.5439" rx="3.9063" ry="3.9063" style="stroke:#00BFFF;stroke-width:0.7813;" width="283.7601" x="459.375" y="2832.9834"/><ellipse cx="547.8149" cy="2857.9834" fill="#ADD1B2" rx="17.1875" ry="17.1875" style="stroke:#181818;stroke-width:1.5625;"/><path d="M552.1362,2851.5381 Q552.3804,2851.1963 552.6733,2851.0254 Q552.9663,2850.8545 553.3081,2850.8545 Q553.894,2850.8545 554.2603,2851.2695 Q554.6265,2851.6602 554.6265,2852.6123 L554.6265,2854.8828 Q554.6265,2855.835 554.2603,2856.25 Q553.894,2856.665 553.3081,2856.665 Q552.771,2856.665 552.4536,2856.3477 Q552.1362,2856.0547 551.9653,2855.249 Q551.8921,2854.6875 551.5991,2854.3945 Q551.0864,2853.8086 550.1343,2853.4668 Q549.1821,2853.125 548.2056,2853.125 Q547.0093,2853.125 546.0083,2853.6377 Q545.0317,2854.1504 544.2505,2855.3223 Q543.4937,2856.4941 543.4937,2858.1055 L543.4937,2859.8145 Q543.4937,2861.7432 544.8853,2863.0371 Q546.2769,2864.3066 548.7671,2864.3066 Q550.2319,2864.3066 551.2573,2863.916 Q551.8677,2863.6719 552.5269,2862.9883 Q552.9419,2862.5732 553.1616,2862.4512 Q553.4058,2862.3291 553.7231,2862.3291 Q554.2358,2862.3291 554.6265,2862.7441 Q555.0415,2863.1348 555.0415,2863.6719 Q555.0415,2864.209 554.5044,2864.8438 Q553.7231,2865.7471 552.478,2866.2598 Q550.7935,2866.9678 548.7671,2866.9678 Q546.3989,2866.9678 544.519,2865.9912 Q542.981,2865.21 541.9067,2863.5498 Q540.8325,2861.8652 540.8325,2859.8633 L540.8325,2858.0566 Q540.8325,2855.9814 541.7847,2854.1992 Q542.7612,2852.3926 544.4702,2851.4404 Q546.1792,2850.4639 548.1079,2850.4639 Q549.2554,2850.4639 550.2563,2850.7324 Q551.2817,2850.9766 552.1362,2851.5381 Z " fill="#000000"/><text fill="#FFFFFF" font-family="sans-serif" font-size="21.875" lengthAdjust="spacing" textLength="93.5989" x="579.8462" y="2866.9342">UMaterial</text><line style="stroke:#00BFFF;stroke-width:0.7813;" x1="460.9375" x2="741.5726" y1="2882.9834" y2="2882.9834"/><line style="stroke:#00BFFF;stroke-width:0.7813;" x1="460.9375" x2="741.5726" y1="2895.4834" y2="2895.4834"/><text fill="#FFFFFF" font-family="sans-serif" font-size="21.875" lengthAdjust="spacing" textLength="177.478" x="468.75" y="2924.4415">public: UMaterial()</text><text fill="#FFFFFF" font-family="sans-serif" font-size="21.875" lengthAdjust="spacing" textLength="115.4953" x="468.75" y="2951.9562">void Apply()</text><text fill="#FFFFFF" font-family="sans-serif" font-size="21.875" lengthAdjust="spacing" textLength="265.0101" x="468.75" y="2979.4708">void SetColor(FColor color)</text></g><!--class UMesh--><g class="entity" data-entity="UMesh" data-source-line="57" data-uid="ent0008" id="entity_UMesh"><rect fill="#3C3C3C" height="157.5439" rx="3.9063" ry="3.9063" style="stroke:#00BFFF;stroke-width:0.7813;" width="440.5807" x="381.25" y="2620.4834"/><ellipse cx="560.2554" cy="2645.4834" fill="#ADD1B2" rx="17.1875" ry="17.1875" style="stroke:#181818;stroke-width:1.5625;"/><path d="M564.5767,2639.0381 Q564.8209,2638.6963 565.1138,2638.5254 Q565.4068,2638.3545 565.7486,2638.3545 Q566.3345,2638.3545 566.7007,2638.7695 Q567.067,2639.1602 567.067,2640.1123 L567.067,2642.3828 Q567.067,2643.335 566.7007,2643.75 Q566.3345,2644.165 565.7486,2644.165 Q565.2115,2644.165 564.8941,2643.8477 Q564.5767,2643.5547 564.4058,2642.749 Q564.3326,2642.1875 564.0396,2641.8945 Q563.5269,2641.3086 562.5748,2640.9668 Q561.6226,2640.625 560.6461,2640.625 Q559.4498,2640.625 558.4488,2641.1377 Q557.4722,2641.6504 556.691,2642.8223 Q555.9341,2643.9941 555.9341,2645.6055 L555.9341,2647.3145 Q555.9341,2649.2432 557.3257,2650.5371 Q558.7173,2651.8066 561.2076,2651.8066 Q562.6724,2651.8066 563.6978,2651.416 Q564.3082,2651.1719 564.9673,2650.4883 Q565.3824,2650.0732 565.6021,2649.9512 Q565.8463,2649.8291 566.1636,2649.8291 Q566.6763,2649.8291 567.067,2650.2441 Q567.482,2650.6348 567.482,2651.1719 Q567.482,2651.709 566.9449,2652.3438 Q566.1636,2653.2471 564.9185,2653.7598 Q563.2339,2654.4678 561.2076,2654.4678 Q558.8394,2654.4678 556.9595,2653.4912 Q555.4214,2652.71 554.3472,2651.0498 Q553.273,2649.3652 553.273,2647.3633 L553.273,2645.5566 Q553.273,2643.4814 554.2252,2641.6992 Q555.2017,2639.8926 556.9107,2638.9404 Q558.6197,2637.9639 560.5484,2637.9639 Q561.6959,2637.9639 562.6968,2638.2324 Q563.7222,2638.4766 564.5767,2639.0381 Z " fill="#000000"/><text fill="#FFFFFF" font-family="sans-serif" font-size="21.875" lengthAdjust="spacing" textLength="69.2886" x="592.2867" y="2654.4342">UMesh</text><line style="stroke:#00BFFF;stroke-width:0.7813;" x1="382.8125" x2="820.2682" y1="2670.4834" y2="2670.4834"/><line style="stroke:#00BFFF;stroke-width:0.7813;" x1="382.8125" x2="820.2682" y1="2682.9834" y2="2682.9834"/><text fill="#FFFFFF" font-family="sans-serif" font-size="21.875" lengthAdjust="spacing" textLength="153.1677" x="390.625" y="2711.9415">public: UMesh()</text><text fill="#FFFFFF" font-family="sans-serif" font-size="21.875" lengthAdjust="spacing" textLength="132.5211" x="390.625" y="2739.4562">void Render()</text><text fill="#FFFFFF" font-family="sans-serif" font-size="21.875" lengthAdjust="spacing" textLength="421.8307" x="390.625" y="2766.9708">void SetVertices(TArray&lt;FVector&gt; vertices)</text></g><!--class UMusic--><g class="entity" data-entity="UMusic" data-source-line="62" data-uid="ent0010" id="entity_UMusic"><rect fill="#3C3C3C" height="157.5439" rx="3.9063" ry="3.9063" style="stroke:#00BFFF;stroke-width:0.7813;" width="175.5493" x="514.0625" y="2407.9834"/><ellipse cx="561.1831" cy="2432.9834" fill="#ADD1B2" rx="17.1875" ry="17.1875" style="stroke:#181818;stroke-width:1.5625;"/><path d="M565.5044,2426.5381 Q565.7485,2426.1963 566.0415,2426.0254 Q566.3345,2425.8545 566.6763,2425.8545 Q567.2622,2425.8545 567.6284,2426.2695 Q567.9946,2426.6602 567.9946,2427.6123 L567.9946,2429.8828 Q567.9946,2430.835 567.6284,2431.25 Q567.2622,2431.665 566.6763,2431.665 Q566.1391,2431.665 565.8218,2431.3477 Q565.5044,2431.0547 565.3335,2430.249 Q565.2602,2429.6875 564.9673,2429.3945 Q564.4546,2428.8086 563.5024,2428.4668 Q562.5503,2428.125 561.5737,2428.125 Q560.3774,2428.125 559.3764,2428.6377 Q558.3999,2429.1504 557.6186,2430.3223 Q556.8618,2431.4941 556.8618,2433.1055 L556.8618,2434.8145 Q556.8618,2436.7432 558.2534,2438.0371 Q559.645,2439.3066 562.1352,2439.3066 Q563.6001,2439.3066 564.6255,2438.916 Q565.2358,2438.6719 565.895,2437.9883 Q566.31,2437.5732 566.5298,2437.4512 Q566.7739,2437.3291 567.0913,2437.3291 Q567.604,2437.3291 567.9946,2437.7441 Q568.4097,2438.1348 568.4097,2438.6719 Q568.4097,2439.209 567.8725,2439.8438 Q567.0913,2440.7471 565.8462,2441.2598 Q564.1616,2441.9678 562.1352,2441.9678 Q559.7671,2441.9678 557.8872,2440.9912 Q556.3491,2440.21 555.2749,2438.5498 Q554.2007,2436.8652 554.2007,2434.8633 L554.2007,2433.0566 Q554.2007,2430.9814 555.1528,2429.1992 Q556.1294,2427.3926 557.8384,2426.4404 Q559.5473,2425.4639 561.4761,2425.4639 Q562.6235,2425.4639 563.6245,2425.7324 Q564.6499,2425.9766 565.5044,2426.5381 Z " fill="#000000"/><text fill="#FFFFFF" font-family="sans-serif" font-size="21.875" lengthAdjust="spacing" textLength="72.9202" x="588.321" y="2441.9342">UMusic</text><line style="stroke:#00BFFF;stroke-width:0.7813;" x1="515.625" x2="688.0493" y1="2457.9834" y2="2457.9834"/><line style="stroke:#00BFFF;stroke-width:0.7813;" x1="515.625" x2="688.0493" y1="2470.4834" y2="2470.4834"/><text fill="#FFFFFF" font-family="sans-serif" font-size="21.875" lengthAdjust="spacing" textLength="156.7993" x="523.4375" y="2499.4415">public: UMusic()</text><text fill="#FFFFFF" font-family="sans-serif" font-size="21.875" lengthAdjust="spacing" textLength="103.3295" x="523.4375" y="2526.9562">void Play()</text><text fill="#FFFFFF" font-family="sans-serif" font-size="21.875" lengthAdjust="spacing" textLength="105.7755" x="523.4375" y="2554.4708">void Stop()</text></g><!--class UScriptableObject--><g class="entity" data-entity="UScriptableObject" data-source-line="67" data-uid="ent0012" id="entity_UScriptableObject"><rect fill="#3C3C3C" height="157.5439" rx="3.9063" ry="3.9063" style="stroke:#00BFFF;stroke-width:0.7813;" width="278.9215" x="461.7188" y="2195.4834"/><ellipse cx="508.8393" cy="2220.4834" fill="#ADD1B2" rx="17.1875" ry="17.1875" style="stroke:#181818;stroke-width:1.5625;"/><path d="M513.1606,2214.0381 Q513.4048,2213.6963 513.6977,2213.5254 Q513.9907,2213.3545 514.3325,2213.3545 Q514.9184,2213.3545 515.2847,2213.7695 Q515.6509,2214.1602 515.6509,2215.1123 L515.6509,2217.3828 Q515.6509,2218.335 515.2847,2218.75 Q514.9184,2219.165 514.3325,2219.165 Q513.7954,2219.165 513.478,2218.8477 Q513.1606,2218.5547 512.9897,2217.749 Q512.9165,2217.1875 512.6235,2216.8945 Q512.1108,2216.3086 511.1587,2215.9668 Q510.2065,2215.625 509.23,2215.625 Q508.0337,2215.625 507.0327,2216.1377 Q506.0561,2216.6504 505.2749,2217.8223 Q504.5181,2218.9941 504.5181,2220.6055 L504.5181,2222.3145 Q504.5181,2224.2432 505.9097,2225.5371 Q507.3013,2226.8066 509.7915,2226.8066 Q511.2563,2226.8066 512.2817,2226.416 Q512.8921,2226.1719 513.5513,2225.4883 Q513.9663,2225.0732 514.186,2224.9512 Q514.4302,2224.8291 514.7475,2224.8291 Q515.2602,2224.8291 515.6509,2225.2441 Q516.0659,2225.6348 516.0659,2226.1719 Q516.0659,2226.709 515.5288,2227.3438 Q514.7475,2228.2471 513.5024,2228.7598 Q511.8179,2229.4678 509.7915,2229.4678 Q507.4233,2229.4678 505.5434,2228.4912 Q504.0054,2227.71 502.9311,2226.0498 Q501.8569,2224.3652 501.8569,2222.3633 L501.8569,2220.5566 Q501.8569,2218.4814 502.8091,2216.6992 Q503.7856,2214.8926 505.4946,2213.9404 Q507.2036,2212.9639 509.1323,2212.9639 Q510.2798,2212.9639 511.2807,2213.2324 Q512.3061,2213.4766 513.1606,2214.0381 Z " fill="#000000"/><text fill="#FFFFFF" font-family="sans-serif" font-size="21.875" lengthAdjust="spacing" textLength="176.2924" x="535.9772" y="2229.4342">UScriptableObject</text><line style="stroke:#00BFFF;stroke-width:0.7813;" x1="463.2813" x2="739.0778" y1="2245.4834" y2="2245.4834"/><line style="stroke:#00BFFF;stroke-width:0.7813;" x1="463.2813" x2="739.0778" y1="2257.9834" y2="2257.9834"/><text fill="#FFFFFF" font-family="sans-serif" font-size="21.875" lengthAdjust="spacing" textLength="260.1715" x="471.0938" y="2286.9415">public: UScriptableObject()</text><text fill="#FFFFFF" font-family="sans-serif" font-size="21.875" lengthAdjust="spacing" textLength="139.8056" x="471.0938" y="2314.4562">void Initialize()</text><text fill="#FFFFFF" font-family="sans-serif" font-size="21.875" lengthAdjust="spacing" textLength="110.6354" x="471.0938" y="2341.9708">void Save()</text></g><!--class UShader--><g class="entity" data-entity="UShader" data-source-line="72" data-uid="ent0014" id="entity_UShader"><rect fill="#3C3C3C" height="157.5439" rx="3.9063" ry="3.9063" style="stroke:#00BFFF;stroke-width:0.7813;" width="522.0886" x="340.625" y="1982.9834"/><ellipse cx="551.8608" cy="2007.9834" fill="#ADD1B2" rx="17.1875" ry="17.1875" style="stroke:#181818;stroke-width:1.5625;"/><path d="M556.1821,2001.5381 Q556.4262,2001.1963 556.7192,2001.0254 Q557.0122,2000.8545 557.354,2000.8545 Q557.9399,2000.8545 558.3061,2001.2695 Q558.6723,2001.6602 558.6723,2002.6123 L558.6723,2004.8828 Q558.6723,2005.835 558.3061,2006.25 Q557.9399,2006.665 557.354,2006.665 Q556.8169,2006.665 556.4995,2006.3477 Q556.1821,2006.0547 556.0112,2005.249 Q555.938,2004.6875 555.645,2004.3945 Q555.1323,2003.8086 554.1801,2003.4668 Q553.228,2003.125 552.2514,2003.125 Q551.0551,2003.125 550.0542,2003.6377 Q549.0776,2004.1504 548.2964,2005.3223 Q547.5395,2006.4941 547.5395,2008.1055 L547.5395,2009.8145 Q547.5395,2011.7432 548.9311,2013.0371 Q550.3227,2014.3066 552.813,2014.3066 Q554.2778,2014.3066 555.3032,2013.916 Q555.9135,2013.6719 556.5727,2012.9883 Q556.9878,2012.5732 557.2075,2012.4512 Q557.4516,2012.3291 557.769,2012.3291 Q558.2817,2012.3291 558.6723,2012.7441 Q559.0874,2013.1348 559.0874,2013.6719 Q559.0874,2014.209 558.5503,2014.8438 Q557.769,2015.7471 556.5239,2016.2598 Q554.8393,2016.9678 552.813,2016.9678 Q550.4448,2016.9678 548.5649,2015.9912 Q547.0268,2015.21 545.9526,2013.5498 Q544.8784,2011.8652 544.8784,2009.8633 L544.8784,2008.0566 Q544.8784,2005.9814 545.8305,2004.1992 Q546.8071,2002.3926 548.5161,2001.4404 Q550.2251,2000.4639 552.1538,2000.4639 Q553.3012,2000.4639 554.3022,2000.7324 Q555.3276,2000.9766 556.1821,2001.5381 Z " fill="#000000"/><text fill="#FFFFFF" font-family="sans-serif" font-size="21.875" lengthAdjust="spacing" textLength="86.3358" x="583.8921" y="2016.9342">UShader</text><line style="stroke:#00BFFF;stroke-width:0.7813;" x1="342.1875" x2="861.1511" y1="2032.9834" y2="2032.9834"/><line style="stroke:#00BFFF;stroke-width:0.7813;" x1="342.1875" x2="861.1511" y1="2045.4834" y2="2045.4834"/><text fill="#FFFFFF" font-family="sans-serif" font-size="21.875" lengthAdjust="spacing" textLength="170.2148" x="350" y="2074.4415">public: UShader()</text><text fill="#FFFFFF" font-family="sans-serif" font-size="21.875" lengthAdjust="spacing" textLength="141.0126" x="350" y="2101.9562">void Compile()</text><text fill="#FFFFFF" font-family="sans-serif" font-size="21.875" lengthAdjust="spacing" textLength="503.3386" x="350" y="2129.4708">void SetProperty(FString propertyName, float value)</text></g><!--class USound--><g class="entity" data-entity="USound" data-source-line="77" data-uid="ent0016" id="entity_USound"><rect fill="#3C3C3C" height="157.5439" rx="3.9063" ry="3.9063" style="stroke:#00BFFF;stroke-width:0.7813;" width="181.6803" x="510.9375" y="1770.4834"/><ellipse cx="558.0581" cy="1795.4834" fill="#ADD1B2" rx="17.1875" ry="17.1875" style="stroke:#181818;stroke-width:1.5625;"/><path d="M562.3794,1789.0381 Q562.6235,1788.6963 562.9165,1788.5254 Q563.2095,1788.3545 563.5513,1788.3545 Q564.1372,1788.3545 564.5034,1788.7695 Q564.8696,1789.1602 564.8696,1790.1123 L564.8696,1792.3828 Q564.8696,1793.335 564.5034,1793.75 Q564.1372,1794.165 563.5513,1794.165 Q563.0141,1794.165 562.6968,1793.8477 Q562.3794,1793.5547 562.2085,1792.749 Q562.1352,1792.1875 561.8423,1791.8945 Q561.3296,1791.3086 560.3774,1790.9668 Q559.4253,1790.625 558.4487,1790.625 Q557.2524,1790.625 556.2514,1791.1377 Q555.2749,1791.6504 554.4936,1792.8223 Q553.7368,1793.9941 553.7368,1795.6055 L553.7368,1797.3145 Q553.7368,1799.2432 555.1284,1800.5371 Q556.52,1801.8066 559.0102,1801.8066 Q560.4751,1801.8066 561.5005,1801.416 Q562.1108,1801.1719 562.77,1800.4883 Q563.185,1800.0732 563.4048,1799.9512 Q563.6489,1799.8291 563.9663,1799.8291 Q564.479,1799.8291 564.8696,1800.2441 Q565.2847,1800.6348 565.2847,1801.1719 Q565.2847,1801.709 564.7475,1802.3438 Q563.9663,1803.2471 562.7212,1803.7598 Q561.0366,1804.4678 559.0102,1804.4678 Q556.6421,1804.4678 554.7622,1803.4912 Q553.2241,1802.71 552.1499,1801.0498 Q551.0757,1799.3652 551.0757,1797.3633 L551.0757,1795.5566 Q551.0757,1793.4814 552.0278,1791.6992 Q553.0044,1789.8926 554.7134,1788.9404 Q556.4223,1787.9639 558.3511,1787.9639 Q559.4985,1787.9639 560.4995,1788.2324 Q561.5249,1788.4766 562.3794,1789.0381 Z " fill="#000000"/><text fill="#FFFFFF" font-family="sans-serif" font-size="21.875" lengthAdjust="spacing" textLength="79.0512" x="585.196" y="1804.4342">USound</text><line style="stroke:#00BFFF;stroke-width:0.7813;" x1="512.5" x2="691.0553" y1="1820.4834" y2="1820.4834"/><line style="stroke:#00BFFF;stroke-width:0.7813;" x1="512.5" x2="691.0553" y1="1832.9834" y2="1832.9834"/><text fill="#FFFFFF" font-family="sans-serif" font-size="21.875" lengthAdjust="spacing" textLength="162.9303" x="520.3125" y="1861.9415">public: USound()</text><text fill="#FFFFFF" font-family="sans-serif" font-size="21.875" lengthAdjust="spacing" textLength="103.3295" x="520.3125" y="1889.4562">void Play()</text><text fill="#FFFFFF" font-family="sans-serif" font-size="21.875" lengthAdjust="spacing" textLength="105.7755" x="520.3125" y="1916.9708">void Stop()</text></g><!--class UTexture--><g class="entity" data-entity="UTexture" data-source-line="82" data-uid="ent0018" id="entity_UTexture"><rect fill="#3C3C3C" height="157.5439" rx="3.9063" ry="3.9063" style="stroke:#00BFFF;stroke-width:0.7813;" width="192.5858" x="505.4688" y="1557.9834"/><ellipse cx="552.5893" cy="1582.9834" fill="#ADD1B2" rx="17.1875" ry="17.1875" style="stroke:#181818;stroke-width:1.5625;"/><path d="M556.9106,1576.5381 Q557.1548,1576.1963 557.4477,1576.0254 Q557.7407,1575.8545 558.0825,1575.8545 Q558.6684,1575.8545 559.0347,1576.2695 Q559.4009,1576.6602 559.4009,1577.6123 L559.4009,1579.8828 Q559.4009,1580.835 559.0347,1581.25 Q558.6684,1581.665 558.0825,1581.665 Q557.5454,1581.665 557.228,1581.3477 Q556.9106,1581.0547 556.7397,1580.249 Q556.6665,1579.6875 556.3735,1579.3945 Q555.8608,1578.8086 554.9087,1578.4668 Q553.9565,1578.125 552.98,1578.125 Q551.7837,1578.125 550.7827,1578.6377 Q549.8061,1579.1504 549.0249,1580.3223 Q548.2681,1581.4941 548.2681,1583.1055 L548.2681,1584.8145 Q548.2681,1586.7432 549.6597,1588.0371 Q551.0513,1589.3066 553.5415,1589.3066 Q555.0063,1589.3066 556.0317,1588.916 Q556.6421,1588.6719 557.3013,1587.9883 Q557.7163,1587.5732 557.936,1587.4512 Q558.1802,1587.3291 558.4975,1587.3291 Q559.0102,1587.3291 559.4009,1587.7441 Q559.8159,1588.1348 559.8159,1588.6719 Q559.8159,1589.209 559.2788,1589.8438 Q558.4975,1590.7471 557.2524,1591.2598 Q555.5679,1591.9678 553.5415,1591.9678 Q551.1733,1591.9678 549.2934,1590.9912 Q547.7554,1590.21 546.6811,1588.5498 Q545.6069,1586.8652 545.6069,1584.8633 L545.6069,1583.0566 Q545.6069,1580.9814 546.5591,1579.1992 Q547.5356,1577.3926 549.2446,1576.4404 Q550.9536,1575.4639 552.8823,1575.4639 Q554.0298,1575.4639 555.0307,1575.7324 Q556.0561,1575.9766 556.9106,1576.5381 Z " fill="#000000"/><text fill="#FFFFFF" font-family="sans-serif" font-size="21.875" lengthAdjust="spacing" textLength="89.9567" x="579.7272" y="1591.9342">UTexture</text><line style="stroke:#00BFFF;stroke-width:0.7813;" x1="507.0313" x2="696.492" y1="1607.9834" y2="1607.9834"/><line style="stroke:#00BFFF;stroke-width:0.7813;" x1="507.0313" x2="696.492" y1="1620.4834" y2="1620.4834"/><text fill="#FFFFFF" font-family="sans-serif" font-size="21.875" lengthAdjust="spacing" textLength="173.8358" x="514.8438" y="1649.4415">public: UTexture()</text><text fill="#FFFFFF" font-family="sans-serif" font-size="21.875" lengthAdjust="spacing" textLength="109.4391" x="514.8438" y="1676.9562">void Load()</text><text fill="#FFFFFF" font-family="sans-serif" font-size="21.875" lengthAdjust="spacing" textLength="115.4953" x="514.8438" y="1704.4708">void Apply()</text></g><!--class UURL--><g class="entity" data-entity="UURL" data-source-line="87" data-uid="ent0020" id="entity_UURL"><rect fill="#3C3C3C" height="157.5439" rx="3.9063" ry="3.9063" style="stroke:#00BFFF;stroke-width:0.7813;" width="175.5814" x="514.0625" y="1345.4834"/><ellipse cx="567.2105" cy="1370.4834" fill="#ADD1B2" rx="17.1875" ry="17.1875" style="stroke:#181818;stroke-width:1.5625;"/><path d="M571.5318,1364.0381 Q571.7759,1363.6963 572.0689,1363.5254 Q572.3618,1363.3545 572.7036,1363.3545 Q573.2896,1363.3545 573.6558,1363.7695 Q574.022,1364.1602 574.022,1365.1123 L574.022,1367.3828 Q574.022,1368.335 573.6558,1368.75 Q573.2896,1369.165 572.7036,1369.165 Q572.1665,1369.165 571.8491,1368.8477 Q571.5318,1368.5547 571.3609,1367.749 Q571.2876,1367.1875 570.9946,1366.8945 Q570.4819,1366.3086 569.5298,1365.9668 Q568.5777,1365.625 567.6011,1365.625 Q566.4048,1365.625 565.4038,1366.1377 Q564.4273,1366.6504 563.646,1367.8223 Q562.8892,1368.9941 562.8892,1370.6055 L562.8892,1372.3145 Q562.8892,1374.2432 564.2808,1375.5371 Q565.6724,1376.8066 568.1626,1376.8066 Q569.6275,1376.8066 570.6528,1376.416 Q571.2632,1376.1719 571.9224,1375.4883 Q572.3374,1375.0732 572.5571,1374.9512 Q572.8013,1374.8291 573.1187,1374.8291 Q573.6314,1374.8291 574.022,1375.2441 Q574.437,1375.6348 574.437,1376.1719 Q574.437,1376.709 573.8999,1377.3438 Q573.1187,1378.2471 571.8736,1378.7598 Q570.189,1379.4678 568.1626,1379.4678 Q565.7944,1379.4678 563.9146,1378.4912 Q562.3765,1377.71 561.3023,1376.0498 Q560.228,1374.3652 560.228,1372.3633 L560.228,1370.5566 Q560.228,1368.4814 561.1802,1366.6992 Q562.1568,1364.8926 563.8657,1363.9404 Q565.5747,1362.9639 567.5034,1362.9639 Q568.6509,1362.9639 569.6519,1363.2324 Q570.6773,1363.4766 571.5318,1364.0381 Z " fill="#000000"/><text fill="#FFFFFF" font-family="sans-serif" font-size="21.875" lengthAdjust="spacing" textLength="59.5581" x="595.6878" y="1379.4342">UURL</text><line style="stroke:#00BFFF;stroke-width:0.7813;" x1="515.625" x2="688.0814" y1="1395.4834" y2="1395.4834"/><text fill="#FFFFFF" font-family="sans-serif" font-size="21.875" lengthAdjust="spacing" textLength="156.8314" x="523.4375" y="1424.4415">FString Address</text><line style="stroke:#00BFFF;stroke-width:0.7813;" x1="515.625" x2="688.0814" y1="1435.498" y2="1435.498"/><text fill="#FFFFFF" font-family="sans-serif" font-size="21.875" lengthAdjust="spacing" textLength="143.4372" x="523.4375" y="1464.4562">public: UURL()</text><text fill="#FFFFFF" font-family="sans-serif" font-size="21.875" lengthAdjust="spacing" textLength="114.2883" x="523.4375" y="1491.9708">void Open()</text></g><!--class UVideo--><g class="entity" data-entity="UVideo" data-source-line="92" data-uid="ent0022" id="entity_UVideo"><rect fill="#3C3C3C" height="157.5439" rx="3.9063" ry="3.9063" style="stroke:#00BFFF;stroke-width:0.7813;" width="174.3744" x="514.0625" y="1132.9834"/><ellipse cx="561.1831" cy="1157.9834" fill="#ADD1B2" rx="17.1875" ry="17.1875" style="stroke:#181818;stroke-width:1.5625;"/><path d="M565.5044,1151.5381 Q565.7485,1151.1963 566.0415,1151.0254 Q566.3345,1150.8545 566.6763,1150.8545 Q567.2622,1150.8545 567.6284,1151.2695 Q567.9946,1151.6602 567.9946,1152.6123 L567.9946,1154.8828 Q567.9946,1155.835 567.6284,1156.25 Q567.2622,1156.665 566.6763,1156.665 Q566.1391,1156.665 565.8218,1156.3477 Q565.5044,1156.0547 565.3335,1155.249 Q565.2602,1154.6875 564.9673,1154.3945 Q564.4546,1153.8086 563.5024,1153.4668 Q562.5503,1153.125 561.5737,1153.125 Q560.3774,1153.125 559.3764,1153.6377 Q558.3999,1154.1504 557.6186,1155.3223 Q556.8618,1156.4941 556.8618,1158.1055 L556.8618,1159.8145 Q556.8618,1161.7432 558.2534,1163.0371 Q559.645,1164.3066 562.1352,1164.3066 Q563.6001,1164.3066 564.6255,1163.916 Q565.2358,1163.6719 565.895,1162.9883 Q566.31,1162.5732 566.5298,1162.4512 Q566.7739,1162.3291 567.0913,1162.3291 Q567.604,1162.3291 567.9946,1162.7441 Q568.4097,1163.1348 568.4097,1163.6719 Q568.4097,1164.209 567.8725,1164.8438 Q567.0913,1165.7471 565.8462,1166.2598 Q564.1616,1166.9678 562.1352,1166.9678 Q559.7671,1166.9678 557.8872,1165.9912 Q556.3491,1165.21 555.2749,1163.5498 Q554.2007,1161.8652 554.2007,1159.8633 L554.2007,1158.0566 Q554.2007,1155.9814 555.1528,1154.1992 Q556.1294,1152.3926 557.8384,1151.4404 Q559.5473,1150.4639 561.4761,1150.4639 Q562.6235,1150.4639 563.6245,1150.7324 Q564.6499,1150.9766 565.5044,1151.5381 Z " fill="#000000"/><text fill="#FFFFFF" font-family="sans-serif" font-size="21.875" lengthAdjust="spacing" textLength="71.7453" x="588.321" y="1166.9342">UVideo</text><line style="stroke:#00BFFF;stroke-width:0.7813;" x1="515.625" x2="686.8744" y1="1182.9834" y2="1182.9834"/><line style="stroke:#00BFFF;stroke-width:0.7813;" x1="515.625" x2="686.8744" y1="1195.4834" y2="1195.4834"/><text fill="#FFFFFF" font-family="sans-serif" font-size="21.875" lengthAdjust="spacing" textLength="155.6244" x="523.4375" y="1224.4415">public: UVideo()</text><text fill="#FFFFFF" font-family="sans-serif" font-size="21.875" lengthAdjust="spacing" textLength="103.3295" x="523.4375" y="1251.9562">void Play()</text><text fill="#FFFFFF" font-family="sans-serif" font-size="21.875" lengthAdjust="spacing" textLength="105.7755" x="523.4375" y="1279.4708">void Stop()</text></g><!--class ACharacter--><g class="entity" data-entity="ACharacter" data-source-line="99" data-uid="ent0025" id="entity_ACharacter"><rect fill="#3C3C3C" height="460.2051" rx="3.9063" ry="3.9063" style="stroke:#00BFFF;stroke-width:0.7813;" width="213.2645" x="34.375" y="339.2334"/><ellipse cx="81.4956" cy="364.2334" fill="#ADD1B2" rx="17.1875" ry="17.1875" style="stroke:#181818;stroke-width:1.5625;"/><path d="M85.8169,357.7881 Q86.061,357.4463 86.354,357.2754 Q86.647,357.1045 86.9888,357.1045 Q87.5747,357.1045 87.9409,357.5195 Q88.3071,357.9102 88.3071,358.8623 L88.3071,361.1328 Q88.3071,362.085 87.9409,362.5 Q87.5747,362.915 86.9888,362.915 Q86.4516,362.915 86.1343,362.5977 Q85.8169,362.3047 85.646,361.499 Q85.5727,360.9375 85.2798,360.6445 Q84.7671,360.0586 83.8149,359.7168 Q82.8628,359.375 81.8862,359.375 Q80.6899,359.375 79.6889,359.8877 Q78.7124,360.4004 77.9311,361.5723 Q77.1743,362.7441 77.1743,364.3555 L77.1743,366.0645 Q77.1743,367.9932 78.5659,369.2871 Q79.9575,370.5566 82.4477,370.5566 Q83.9126,370.5566 84.938,370.166 Q85.5483,369.9219 86.2075,369.2383 Q86.6225,368.8232 86.8423,368.7012 Q87.0864,368.5791 87.4038,368.5791 Q87.9165,368.5791 88.3071,368.9941 Q88.7222,369.3848 88.7222,369.9219 Q88.7222,370.459 88.185,371.0938 Q87.4038,371.9971 86.1587,372.5098 Q84.4741,373.2178 82.4477,373.2178 Q80.0796,373.2178 78.1997,372.2412 Q76.6616,371.46 75.5874,369.7998 Q74.5132,368.1152 74.5132,366.1133 L74.5132,364.3066 Q74.5132,362.2314 75.4653,360.4492 Q76.4419,358.6426 78.1509,357.6904 Q79.8598,356.7139 81.7886,356.7139 Q82.936,356.7139 83.937,356.9824 Q84.9624,357.2266 85.8169,357.7881 Z " fill="#000000"/><text fill="#FFFFFF" font-family="sans-serif" font-size="21.875" lengthAdjust="spacing" textLength="110.6354" x="108.6335" y="373.1842">ACharacter</text><line style="stroke:#00BFFF;stroke-width:0.7813;" x1="35.9375" x2="246.077" y1="389.2334" y2="389.2334"/><text fill="#FFFFFF" font-family="sans-serif" font-size="21.875" lengthAdjust="spacing" textLength="92.4133" x="43.75" y="418.1915">int Health</text><text fill="#FFFFFF" font-family="sans-serif" font-size="21.875" lengthAdjust="spacing" textLength="109.4284" x="43.75" y="445.7062">int Stamina</text><text fill="#FFFFFF" font-family="sans-serif" font-size="21.875" lengthAdjust="spacing" textLength="111.8744" x="43.75" y="473.2208">int Strength</text><text fill="#FFFFFF" font-family="sans-serif" font-size="21.875" lengthAdjust="spacing" textLength="87.532" x="43.75" y="500.7355">int Agility</text><text fill="#FFFFFF" font-family="sans-serif" font-size="21.875" lengthAdjust="spacing" textLength="139.8483" x="43.75" y="528.2501">int Intelligence</text><text fill="#FFFFFF" font-family="sans-serif" font-size="21.875" lengthAdjust="spacing" textLength="81.4758" x="43.75" y="555.7648">int Level</text><text fill="#FFFFFF" font-family="sans-serif" font-size="21.875" lengthAdjust="spacing" textLength="138.62" x="43.75" y="583.2794">int Experience</text><line style="stroke:#00BFFF;stroke-width:0.7813;" x1="35.9375" x2="246.077" y1="594.3359" y2="594.3359"/><text fill="#FFFFFF" font-family="sans-serif" font-size="21.875" lengthAdjust="spacing" textLength="194.5145" x="43.75" y="623.2941">public: ACharacter()</text><text fill="#FFFFFF" font-family="sans-serif" font-size="21.875" lengthAdjust="spacing" textLength="114.267" x="43.75" y="650.8087">void Move()</text><text fill="#FFFFFF" font-family="sans-serif" font-size="21.875" lengthAdjust="spacing" textLength="114.267" x="43.75" y="678.3234">void Jump()</text><text fill="#FFFFFF" font-family="sans-serif" font-size="21.875" lengthAdjust="spacing" textLength="121.5622" x="43.75" y="705.838">void Attack()</text><text fill="#FFFFFF" font-family="sans-serif" font-size="21.875" lengthAdjust="spacing" textLength="131.3141" x="43.75" y="733.3527">void Defend()</text><text fill="#FFFFFF" font-family="sans-serif" font-size="21.875" lengthAdjust="spacing" textLength="105.7648" x="43.75" y="760.8673">void Heal()</text><text fill="#FFFFFF" font-family="sans-serif" font-size="21.875" lengthAdjust="spacing" textLength="142.2195" x="43.75" y="788.382">void UseItem()</text></g><!--class AEnemy--><g class="entity" data-entity="AEnemy" data-source-line="115" data-uid="ent0027" id="entity_AEnemy"><rect fill="#3C3C3C" height="240.0879" rx="3.9063" ry="3.9063" style="stroke:#00BFFF;stroke-width:0.7813;" width="449.1257" x="377.3438" y="744.7021"/><ellipse cx="553.9299" cy="769.7021" fill="#ADD1B2" rx="17.1875" ry="17.1875" style="stroke:#181818;stroke-width:1.5625;"/><path d="M558.2512,763.2568 Q558.4953,762.915 558.7883,762.7441 Q559.0813,762.5732 559.4231,762.5732 Q560.009,762.5732 560.3752,762.9883 Q560.7414,763.3789 560.7414,764.3311 L560.7414,766.6016 Q560.7414,767.5537 560.3752,767.9688 Q560.009,768.3838 559.4231,768.3838 Q558.886,768.3838 558.5686,768.0664 Q558.2512,767.7734 558.0803,766.9678 Q558.007,766.4063 557.7141,766.1133 Q557.2014,765.5273 556.2492,765.1855 Q555.2971,764.8438 554.3205,764.8438 Q553.1242,764.8438 552.1233,765.3564 Q551.1467,765.8691 550.3654,767.041 Q549.6086,768.2129 549.6086,769.8242 L549.6086,771.5332 Q549.6086,773.4619 551.0002,774.7559 Q552.3918,776.0254 554.882,776.0254 Q556.3469,776.0254 557.3723,775.6348 Q557.9826,775.3906 558.6418,774.707 Q559.0569,774.292 559.2766,774.1699 Q559.5207,774.0479 559.8381,774.0479 Q560.3508,774.0479 560.7414,774.4629 Q561.1565,774.8535 561.1565,775.3906 Q561.1565,775.9277 560.6194,776.5625 Q559.8381,777.4658 558.593,777.9785 Q556.9084,778.6865 554.882,778.6865 Q552.5139,778.6865 550.634,777.71 Q549.0959,776.9287 548.0217,775.2686 Q546.9475,773.584 546.9475,771.582 L546.9475,769.7754 Q546.9475,767.7002 547.8996,765.918 Q548.8762,764.1113 550.5852,763.1592 Q552.2942,762.1826 554.2229,762.1826 Q555.3703,762.1826 556.3713,762.4512 Q557.3967,762.6953 558.2512,763.2568 Z " fill="#000000"/><text fill="#FFFFFF" font-family="sans-serif" font-size="21.875" lengthAdjust="spacing" textLength="82.6721" x="585.9612" y="778.653">AEnemy</text><line style="stroke:#00BFFF;stroke-width:0.7813;" x1="378.9063" x2="824.9069" y1="794.7021" y2="794.7021"/><text fill="#FFFFFF" font-family="sans-serif" font-size="21.875" lengthAdjust="spacing" textLength="111.8637" x="386.7188" y="823.6603">int Damage</text><line style="stroke:#00BFFF;stroke-width:0.7813;" x1="378.9063" x2="824.9069" y1="834.7168" y2="834.7168"/><text fill="#FFFFFF" font-family="sans-serif" font-size="21.875" lengthAdjust="spacing" textLength="166.5512" x="386.7188" y="863.6749">public: AEnemy()</text><text fill="#FFFFFF" font-family="sans-serif" font-size="21.875" lengthAdjust="spacing" textLength="430.3757" x="386.7188" y="891.1896">void AttackPlayer(APlayerCharacter* player)</text><text fill="#FFFFFF" font-family="sans-serif" font-size="21.875" lengthAdjust="spacing" textLength="117.9199" x="386.7188" y="918.7042">void Patrol()</text><text fill="#FFFFFF" font-family="sans-serif" font-size="21.875" lengthAdjust="spacing" textLength="103.3295" x="386.7188" y="946.2189">void Flee()</text><text fill="#FFFFFF" font-family="sans-serif" font-size="21.875" lengthAdjust="spacing" textLength="150.7645" x="386.7188" y="973.7335">void DropLoot()</text></g><!--class ANPC--><g class="entity" data-entity="ANPC" data-source-line="123" data-uid="ent0029" id="entity_ANPC"><rect fill="#3C3C3C" height="240.0879" rx="3.9063" ry="3.9063" style="stroke:#00BFFF;stroke-width:0.7813;" width="451.5503" x="375.7813" y="449.3896"/><ellipse cx="564.5279" cy="474.3896" fill="#ADD1B2" rx="17.1875" ry="17.1875" style="stroke:#181818;stroke-width:1.5625;"/><path d="M568.8492,467.9443 Q569.0933,467.6025 569.3863,467.4316 Q569.6793,467.2607 570.0211,467.2607 Q570.607,467.2607 570.9732,467.6758 Q571.3394,468.0664 571.3394,469.0186 L571.3394,471.2891 Q571.3394,472.2412 570.9732,472.6563 Q570.607,473.0713 570.0211,473.0713 Q569.4839,473.0713 569.1666,472.7539 Q568.8492,472.4609 568.6783,471.6553 Q568.605,471.0938 568.3121,470.8008 Q567.7994,470.2148 566.8472,469.873 Q565.8951,469.5313 564.9185,469.5313 Q563.7222,469.5313 562.7213,470.0439 Q561.7447,470.5566 560.9634,471.7285 Q560.2066,472.9004 560.2066,474.5117 L560.2066,476.2207 Q560.2066,478.1494 561.5982,479.4434 Q562.9898,480.7129 565.48,480.7129 Q566.9449,480.7129 567.9703,480.3223 Q568.5806,480.0781 569.2398,479.3945 Q569.6548,478.9795 569.8746,478.8574 Q570.1187,478.7354 570.4361,478.7354 Q570.9488,478.7354 571.3394,479.1504 Q571.7545,479.541 571.7545,480.0781 Q571.7545,480.6152 571.2173,481.25 Q570.4361,482.1533 569.191,482.666 Q567.5064,483.374 565.48,483.374 Q563.1119,483.374 561.232,482.3975 Q559.6939,481.6162 558.6197,479.9561 Q557.5455,478.2715 557.5455,476.2695 L557.5455,474.4629 Q557.5455,472.3877 558.4976,470.6055 Q559.4742,468.7988 561.1832,467.8467 Q562.8922,466.8701 564.8209,466.8701 Q565.9683,466.8701 566.9693,467.1387 Q567.9947,467.3828 568.8492,467.9443 Z " fill="#000000"/><text fill="#FFFFFF" font-family="sans-serif" font-size="21.875" lengthAdjust="spacing" textLength="60.7758" x="596.5591" y="483.3405">ANPC</text><line style="stroke:#00BFFF;stroke-width:0.7813;" x1="377.3438" x2="825.769" y1="499.3896" y2="499.3896"/><text fill="#FFFFFF" font-family="sans-serif" font-size="21.875" lengthAdjust="spacing" textLength="162.9303" x="385.1563" y="528.3478">FString Dialogue</text><line style="stroke:#00BFFF;stroke-width:0.7813;" x1="377.3438" x2="825.769" y1="539.4043" y2="539.4043"/><text fill="#FFFFFF" font-family="sans-serif" font-size="21.875" lengthAdjust="spacing" textLength="144.6548" x="385.1563" y="568.3624">public: ANPC()</text><text fill="#FFFFFF" font-family="sans-serif" font-size="21.875" lengthAdjust="spacing" textLength="122.8012" x="385.1563" y="595.8771">void Speak()</text><text fill="#FFFFFF" font-family="sans-serif" font-size="21.875" lengthAdjust="spacing" textLength="432.8003" x="385.1563" y="623.3917">void FollowPlayer(APlayerCharacter* player)</text><text fill="#FFFFFF" font-family="sans-serif" font-size="21.875" lengthAdjust="spacing" textLength="361.087" x="385.1563" y="650.9064">void GiveQuest(class AQuest* quest)</text><text fill="#FFFFFF" font-family="sans-serif" font-size="21.875" lengthAdjust="spacing" textLength="409.729" x="385.1563" y="678.421">void CompleteQuest(class AQuest* quest)</text></g><!--class APlayerCharacter--><g class="entity" data-entity="APlayerCharacter" data-source-line="131" data-uid="ent0031" id="entity_APlayerCharacter"><rect fill="#3C3C3C" height="240.0879" rx="3.9063" ry="3.9063" style="stroke:#00BFFF;stroke-width:0.7813;" width="422.3267" x="390.625" y="154.0771"/><ellipse cx="508.828" cy="179.0771" fill="#ADD1B2" rx="17.1875" ry="17.1875" style="stroke:#181818;stroke-width:1.5625;"/><path d="M513.1493,172.6318 Q513.3934,172.29 513.6864,172.1191 Q513.9793,171.9482 514.3211,171.9482 Q514.9071,171.9482 515.2733,172.3633 Q515.6395,172.7539 515.6395,173.7061 L515.6395,175.9766 Q515.6395,176.9287 515.2733,177.3438 Q514.9071,177.7588 514.3211,177.7588 Q513.784,177.7588 513.4666,177.4414 Q513.1493,177.1484 512.9784,176.3428 Q512.9051,175.7813 512.6122,175.4883 Q512.0995,174.9023 511.1473,174.5605 Q510.1952,174.2188 509.2186,174.2188 Q508.0223,174.2188 507.0213,174.7314 Q506.0448,175.2441 505.2635,176.416 Q504.5067,177.5879 504.5067,179.1992 L504.5067,180.9082 Q504.5067,182.8369 505.8983,184.1309 Q507.2899,185.4004 509.7801,185.4004 Q511.245,185.4004 512.2704,185.0098 Q512.8807,184.7656 513.5399,184.082 Q513.9549,183.667 514.1747,183.5449 Q514.4188,183.4229 514.7362,183.4229 Q515.2489,183.4229 515.6395,183.8379 Q516.0545,184.2285 516.0545,184.7656 Q516.0545,185.3027 515.5174,185.9375 Q514.7362,186.8408 513.4911,187.3535 Q511.8065,188.0615 509.7801,188.0615 Q507.412,188.0615 505.5321,187.085 Q503.994,186.3037 502.9198,184.6436 Q501.8456,182.959 501.8456,180.957 L501.8456,179.1504 Q501.8456,177.0752 502.7977,175.293 Q503.7743,173.4863 505.4832,172.5342 Q507.1922,171.5576 509.1209,171.5576 Q510.2684,171.5576 511.2694,171.8262 Q512.2948,172.0703 513.1493,172.6318 Z " fill="#000000"/><text fill="#FFFFFF" font-family="sans-serif" font-size="21.875" lengthAdjust="spacing" textLength="172.6395" x="540.8592" y="188.028">APlayerCharacter</text><line style="stroke:#00BFFF;stroke-width:0.7813;" x1="392.1875" x2="811.3892" y1="204.0771" y2="204.0771"/><line style="stroke:#00BFFF;stroke-width:0.7813;" x1="392.1875" x2="811.3892" y1="216.5771" y2="216.5771"/><text fill="#FFFFFF" font-family="sans-serif" font-size="21.875" lengthAdjust="spacing" textLength="256.5186" x="400" y="245.5353">public: APlayerCharacter()</text><text fill="#FFFFFF" font-family="sans-serif" font-size="21.875" lengthAdjust="spacing" textLength="170.2042" x="400" y="273.0499">void SaveGame()</text><text fill="#FFFFFF" font-family="sans-serif" font-size="21.875" lengthAdjust="spacing" textLength="169.0079" x="400" y="300.5646">void LoadGame()</text><text fill="#FFFFFF" font-family="sans-serif" font-size="21.875" lengthAdjust="spacing" textLength="378.038" x="400" y="328.0792">void EquipArmor(class AArmor* armor)</text><text fill="#FFFFFF" font-family="sans-serif" font-size="21.875" lengthAdjust="spacing" textLength="403.5767" x="400" y="355.5939">void UnequipArmor(class AArmor* armor)</text><text fill="#FFFFFF" font-family="sans-serif" font-size="21.875" lengthAdjust="spacing" textLength="282.0786" x="400" y="383.1085">void CustomizeAppearance()</text></g><!--reverse link UObject to UAnimationClip--><g class="link" data-entity-1="UObject" data-entity-2="UAnimationClip" data-source-line="47" data-uid="lnk5" id="link_UObject_UAnimationClip"><path d="M157.3632,2233.1531 C195.7695,2397.6531 340.625,3018.1396 340.625,3018.1396 C340.625,3018.1396 408.5469,3049.6396 474.875,3080.4053" fill="none" id="UObject-backto-UAnimationClip" style="stroke:#00BFFF;stroke-width:3.125;"/><polygon fill="none" points="150.9688,2205.7646,148.2337,2235.2846,166.4927,2231.0216,150.9688,2205.7646" style="stroke:#00BFFF;stroke-width:3.125;"/></g><!--reverse link UObject to UMaterial--><g class="link" data-entity-1="UObject" data-entity-2="UMaterial" data-source-line="53" data-uid="lnk7" id="link_UObject_UMaterial"><path d="M162.3583,2232.9627 C205.0771,2370.2127 340.625,2805.6396 340.625,2805.6396 C340.625,2805.6396 398.0937,2829.1865 458.9219,2854.1084" fill="none" id="UObject-backto-UMaterial" style="stroke:#00BFFF;stroke-width:3.125;"/><polygon fill="none" points="154,2206.1084,153.4069,2235.7488,171.3098,2230.1766,154,2206.1084" style="stroke:#00BFFF;stroke-width:3.125;"/></g><!--reverse link UObject to UMesh--><g class="link" data-entity-1="UObject" data-entity-2="UMesh" data-source-line="58" data-uid="lnk9" id="link_UObject_UMesh"><path d="M171.6949,2231.3427 C220.2574,2335.3584 340.625,2593.1396 340.625,2593.1396 C340.625,2593.1396 368.8906,2604.7178 406.75,2620.2334" fill="none" id="UObject-backto-UMesh" style="stroke:#00BFFF;stroke-width:3.125;"/><polygon fill="none" points="159.7969,2205.8584,163.2001,2235.3088,180.1897,2227.3767,159.7969,2205.8584" style="stroke:#00BFFF;stroke-width:3.125;"/></g><!--reverse link UObject to UMusic--><g class="link" data-entity-1="UObject" data-entity-2="UMusic" data-source-line="63" data-uid="lnk11" id="link_UObject_UMusic"><path d="M196.3997,2226.1946 C253.3685,2287.1946 340.625,2380.6396 340.625,2380.6396 C340.625,2380.6396 438.1719,2420.6084 513.625,2451.5146" fill="none" id="UObject-backto-UMusic" style="stroke:#00BFFF;stroke-width:3.125;"/><polygon fill="none" points="177.2031,2205.6396,189.548,2232.5935,203.2514,2219.7958,177.2031,2205.6396" style="stroke:#00BFFF;stroke-width:3.125;"/></g><!--reverse link UObject to UScriptableObject--><g class="link" data-entity-1="UObject" data-entity-2="UScriptableObject" data-source-line="68" data-uid="lnk13" id="link_UObject_UScriptableObject"><path d="M233.2406,2189.2793 C299.0843,2204.5605 376.5938,2222.5459 461.625,2242.2803" fill="none" id="UObject-backto-UScriptableObject" style="stroke:#00BFFF;stroke-width:3.125;"/><polygon fill="none" points="205.8438,2182.9209,231.1211,2198.4115,235.36,2180.147,205.8438,2182.9209" style="stroke:#00BFFF;stroke-width:3.125;"/></g><!--reverse link UObject to UShader--><g class="link" data-entity-1="UObject" data-entity-2="UShader" data-source-line="73" data-uid="lnk15" id="link_UObject_UShader"><path d="M233.2411,2147.0023 C269.4755,2138.5961 290.1563,2133.7959 340.2344,2122.1709" fill="none" id="UObject-backto-UShader" style="stroke:#00BFFF;stroke-width:3.125;"/><polygon fill="none" points="205.8438,2153.3584,235.3598,2156.1348,231.1224,2137.8698,205.8438,2153.3584" style="stroke:#00BFFF;stroke-width:3.125;"/></g><!--reverse link UObject to USound--><g class="link" data-entity-1="UObject" data-entity-2="USound" data-source-line="78" data-uid="lnk17" id="link_UObject_USound"><path d="M196.3997,2110.0847 C253.3685,2049.0847 340.625,1955.6396 340.625,1955.6396 C340.625,1955.6396 435.7031,1916.6865 510.7344,1885.9521" fill="none" id="UObject-backto-USound" style="stroke:#00BFFF;stroke-width:3.125;"/><polygon fill="none" points="177.2031,2130.6396,203.2514,2116.4835,189.548,2103.6858,177.2031,2130.6396" style="stroke:#00BFFF;stroke-width:3.125;"/></g><!--reverse link UObject to UTexture--><g class="link" data-entity-1="UObject" data-entity-2="UTexture" data-source-line="83" data-uid="lnk19" id="link_UObject_UTexture"><path d="M171.6949,2104.9366 C220.2574,2000.9209 340.625,1743.1396 340.625,1743.1396 C340.625,1743.1396 430.8594,1706.1709 504.8906,1675.8428" fill="none" id="UObject-backto-UTexture" style="stroke:#00BFFF;stroke-width:3.125;"/><polygon fill="none" points="159.7969,2130.4209,180.1897,2108.9026,163.2001,2100.9705,159.7969,2130.4209" style="stroke:#00BFFF;stroke-width:3.125;"/></g><!--reverse link UObject to UURL--><g class="link" data-entity-1="UObject" data-entity-2="UURL" data-source-line="88" data-uid="lnk21" id="link_UObject_UURL"><path d="M162.3583,2103.3166 C205.0771,1966.0666 340.625,1530.6396 340.625,1530.6396 C340.625,1530.6396 438.1719,1490.6709 513.625,1459.7646" fill="none" id="UObject-backto-UURL" style="stroke:#00BFFF;stroke-width:3.125;"/><polygon fill="none" points="154,2130.1709,171.3098,2106.1027,153.4069,2100.5305,154,2130.1709" style="stroke:#00BFFF;stroke-width:3.125;"/></g><!--reverse link UObject to UVideo--><g class="link" data-entity-1="UObject" data-entity-2="UVideo" data-source-line="93" data-uid="lnk23" id="link_UObject_UVideo"><path d="M157.3632,2103.1262 C195.7695,1938.6262 340.625,1318.1396 340.625,1318.1396 C340.625,1318.1396 438.1719,1278.1709 513.625,1247.2646" fill="none" id="UObject-backto-UVideo" style="stroke:#00BFFF;stroke-width:3.125;"/><polygon fill="none" points="150.9688,2130.5146,166.4927,2105.2577,148.2337,2100.9947,150.9688,2130.5146" style="stroke:#00BFFF;stroke-width:3.125;"/></g><!--reverse link ACharacter to ACharacter--><g class="link" data-entity-1="ACharacter" data-entity-2="ACharacter" data-source-line="100" data-uid="lnk26" id="link_ACharacter_ACharacter"><path d="M73.3655,312.9449 C85.8655,280.2261 101.5938,284.5459 140.625,284.5459 C179.6563,284.5459 205.4219,306.499 217.9219,339.2178" fill="none" id="ACharacter-backto-ACharacter" style="stroke:#00BFFF;stroke-width:3.125;"/><polygon fill="none" points="63.3281,339.2178,82.1232,316.2907,64.6079,309.5991,63.3281,339.2178" style="stroke:#00BFFF;stroke-width:3.125;"/></g><!--reverse link ACharacter to AEnemy--><g class="link" data-entity-1="ACharacter" data-entity-2="AEnemy" data-source-line="116" data-uid="lnk28" id="link_ACharacter_AEnemy"><path d="M269.8234,664.1711 C317.4171,699.4055 340.625,716.5771 340.625,716.5771 C340.625,716.5771 360.5781,727.999 389.4063,744.499" fill="none" id="ACharacter-backto-AEnemy" style="stroke:#00BFFF;stroke-width:3.125;"/><polygon fill="none" points="247.2188,647.4365,264.2452,671.706,275.4016,656.6362,247.2188,647.4365" style="stroke:#00BFFF;stroke-width:3.125;"/></g><!--reverse link ACharacter to ANPC--><g class="link" data-entity-1="ACharacter" data-entity-2="ANPC" data-source-line="124" data-uid="lnk30" id="link_ACharacter_ANPC"><path d="M275.3438,569.7021 C313.75,569.7021 330.7031,569.7021 375.5469,569.7021" fill="none" id="ACharacter-backto-ANPC" style="stroke:#00BFFF;stroke-width:3.125;"/><polygon fill="none" points="247.2188,569.7021,275.3438,579.0771,275.3438,560.3271,247.2188,569.7021" style="stroke:#00BFFF;stroke-width:3.125;"/></g><!--reverse link ACharacter to APlayerCharacter--><g class="link" data-entity-1="ACharacter" data-entity-2="APlayerCharacter" data-source-line="132" data-uid="lnk32" id="link_ACharacter_APlayerCharacter"><path d="M269.7383,474.2907 C317.332,438.6813 340.625,421.2646 340.625,421.2646 C340.625,421.2646 360.8594,409.8115 390.0156,393.2959" fill="none" id="ACharacter-backto-APlayerCharacter" style="stroke:#00BFFF;stroke-width:3.125;"/><polygon fill="none" points="247.2188,491.1396,275.3546,481.7972,264.1219,466.7842,247.2188,491.1396" style="stroke:#00BFFF;stroke-width:3.125;"/></g><!--SRC=[bLPTRzis57ttho2wbopO2iMEdMG80gYntMPmcgnEyavJrpONYcGfoeqtvB_lKfPbYbALJ0HiyFBmt0zU7ad0qXAhYE6hjIK9Dy0iLxANFNEfgQ4fUU1Mm5H9Uws4CkINPV5u04FbSmQQd7mSU5Qf4jXP8yygk0IxrK2q4bityTPYOzIFXpLdpnAoZFJ3fQuO5fGzhupAPL8YJi0D3y44pR9F8Mp0t6Z0b4d0b90eMjHz5P2kO0f0RAtXYzp2cyXRi6kLl4teQj0PK-NoXYavv_y0yKkVQ4vEXhv5OpNe2iY_FK8QbUapDznAIp48QORRuBYyZ9bL9hkwmkEu6B2pWAss3XTHEyVr6cDb5dQuvVASHL784s96enscmOL16oL42JnPdi8fDCZge2XYa9oqiNscATowBdUm0UkV3Xi9rY0qwaVBdyILQYL1sWBNPsTzUjuCoyTKvz3W-l8uBd9BXZ1OX2JbOeIrFclV3KANYP-Ukz5WE01eyRInZAcbSPR1BjRXS31edbaTirnIsdvcz-YDPnOaWrte8nmXMGF4y6bZ-oHoq8PBE-CBGmtVdKmVecZGQ8HsxA8_6hLN_iwkzwMBt0Zv3kiNnTDxxLcdhUHH6g1Yya9JZRFVopcPo1KA91b-7FRsD_L3MVuFn3y9TtyB0I2FiUGfTG9-BRWcy88bIT1yj_WRTRq0ujMTeqp85VcApLaOba9HIyQvANRsTBuGdFqHa1tzMc0tYYVaNj1jCNyzUBwbUFyuXjrqMX7kCJvNhBNO-eOvx8JbQBhJ5-P-GsUGhJiTuRhF-Gs1O08lJs0iPv0TFQ2qqktbz0cS7bsHJRaGEiqppZgzEa1hdVPEhT9XtURCS6tfGa19sE4WnFhSDv9RB2sgViqZtK33uvfYCJhz50YVnwaF5n1KyDueR46xFTgtb2uDhhL-A_jgG_4UXI6uQzCPWGFytr8-865ke8ktXFXCCqMJzeRqg1-_pTwuJN6I6FniERZ2BJxjdGOPiZxn15HNk0NWdMLuFQZ4uNteXABsTZneHLpPgmWyqouv53_o1RN8hglftDAKI-hD3SYL1uXNN72xhUOtqe8GVEN4kJBEO0EYcarUi6ju0TYdVWZ5J_TMRMfdzsUUreG9lu2m1hvb34keTvBBnvy_Pd1Z8GtE9fv8IBVTbHdJ5Cjz2BdOqWp7dHcc4U_-Aw9ZeWk3VxhKVNdu35C1jOJ7UC5cIjamsg_trp-FTT-YOzG7jSgzY75RhPiqq5hrflWTf7wyFu7FV0D_vP3PepAkOd9Clhk_G4u4s6wibrxWkJtLAgi07UgX-oWB1I2qJRxdNCScnTTG6K8nEIRK_VdT8-6zqEiyiof5WKQ50OmDstr_TVy3]--></g></svg>